<svg id="Layer_1" data-name="Layer 1" xmlns="http://www.w3.org/2000/svg" viewBox="0 0 1843.85 1969.38"><defs><style>.cls-1{fill:#8763b5;}</style></defs><path class="cls-1" d="M995,22.2c-2.4,4-8.8,14.5-14.3,23.3S964.5,71.6,957,84s-25.1,40.9-39,63.5-30.6,49.5-37,60-21.9,35.6-34.5,56-28.1,45.5-34.5,56-16.5,26.9-22.5,36.5-16.1,26-22.5,36.5-21.9,35.6-34.5,56-28.1,45.5-34.5,56-16.5,26.9-22.5,36.5-16.1,26-22.5,36.5-21.9,35.6-34.5,56-28.1,45.5-34.5,56-22,35.6-34.5,56-28.1,45.5-34.5,56-16.5,26.9-22.5,36.5-16.1,26-22.5,36.5-22,35.6-34.5,56-27.4,44.4-33,53.5c-17.7,28.8-52.1,84.7-89,144.5-19.7,31.9-43.5,70.6-53,86-64,103.9-128,207.7-164,265.8-10.2,16.4-18.5,30.2-18.5,30.6,0,.9,25.6,22.4,43.5,36.7,45.6,36.4,114.8,83.7,161.7,110.9,6.5,3.7,11.6,7,11.4,7.4s-8,13.5-17.5,29.4-17.1,29.4-17.1,30.2-7.2,13.6-16,28.2-15.7,27-15.3,27.4c3,3,60.1,33.5,87.3,46.7,258.1,125.2,541.9,176.4,828.5,149.7,175.3-16.4,343.2-61.6,506-136.1,19.4-8.8,75.7-37.2,90.5-45.6,6.3-3.6,17.4-9.8,24.5-13.8s13.2-7.4,13.4-7.6-6.9-12.5-15.7-27.3-16.2-27.4-16.2-27.9-7.9-14.1-17.6-30.2-17.3-29.8-17-30.5,3.7-3.1,7.8-5.5c58.8-34.8,135.3-89.5,188.3-134.9,6.1-5.2,11.7-10,12.5-10.8,1.2-1.1,1.2-1.7-.5-4.6-3-5.2-32.4-52.7-36-58.2-3-4.6-10.1-16.1-40-64.5-5.6-9.1-16.7-27.1-24.7-40s-22.3-36.1-31.8-51.5-26.7-43.3-38.3-62-26.9-43.5-34-55-16.4-26.6-20.7-33.5c-6.7-10.8-26.5-42.8-70.8-114.5-5.7-9.4-13.9-22.6-18.2-29.5s-14.8-24-23.5-38-19.2-31.1-23.5-38-13.7-22.2-21-34-17.9-28.9-23.5-38-19.8-32-31.5-51c-37.7-61-50.1-81.2-60.5-98-5.6-9.1-16.1-26-23.2-37.5S1376.7,623,1365,604s-27.1-44-34.3-55.5-16.4-26.6-20.7-33.5-19.6-31.6-34-55-30.9-49.9-36.5-59c-9.6-15.5-36.1-58.4-65.8-106.5-7.1-11.6-18.7-30.2-25.7-41.5s-21.8-35.4-33-53.5-26.5-42.9-34-55-18.5-29.9-24.4-39.5-18.2-29.7-27.3-44.5-19.1-31.2-22.2-36.2-6.1-9.3-6.7-9.3S997.3,18.3,995,22.2ZM1014.1,179c7.3,11.8,17.8,28.9,23.4,38s25.6,41.5,44.5,72c38.4,62.1,50,80.9,67,108.5,6.5,10.4,18.8,30.5,27.5,44.5s18.1,29.3,21,34,11.2,18.2,18.5,30,18,29.1,23.8,38.5c20.4,33.1,31.1,50.3,46.7,75.5,8.7,14,18.1,29.3,21,34s12.3,20,21,34,25.8,41.7,38,61.5,28.2,45.7,35.5,57.5,21.5,34.8,31.5,51,25.3,41,34,55,24,38.8,34,55l42,68c13.1,21.2,29.1,47,35.5,57.5s22.4,36.3,35.5,57.5,28.4,45.9,34,55,20.9,33.8,34,55,28.4,45.9,34,55,15,24.3,20.8,33.7,15.4,24.8,21,34c18.2,29.5,49.7,80.4,58.6,94.8,4.8,7.7,9,14.5,9.4,15.2,1.2,2-46.9,37.9-84.8,63.3-27.2,18.2-63.8,41-65.9,41-.3,0-4-6-8.4-13.2s-28.8-48.2-54.2-90.8-49.5-82.9-53.5-89.5-24-40.1-44.5-74.5-41.8-70.2-47.5-79.5c-9.5-15.9-29.5-49.2-148.5-248.5-25.5-42.6-56.5-94.6-69-115.5-72.4-121-122.8-205.4-132.8-222.5-16.1-27.3-109.9-184.2-111.2-186-.6-.9-1.3-1.1-1.5-.5s-13.8,23.3-30.1,50.5c-56.8,94.8-72.7,121.5-73.5,123-.4.8-10.2,17.2-21.7,36.5S841.5,750.6,821,785s-40.5,67.9-44.5,74.5c-6.8,11.4-55.1,92.1-135,226-19.7,33-50.9,85.2-69.3,116-63.8,106.7-79.1,132.4-123.7,207-24.6,41.2-55.8,93.4-69.3,116s-29.5,49.3-35.5,59.5-11.6,19.1-12.3,19.9c-1.1,1.2-2.7.6-10.6-3.9-24.2-13.9-67.9-42.1-94.3-60.8-20.1-14.2-53.5-39.4-53.1-40.1.8-1.3,27.4-44.6,58.3-94.6,17.6-28.6,47.5-77.2,66.5-108,40.1-65.1,71-115.3,102.6-166.5,12.4-20.1,27.8-45.1,34.2-55.5s21.9-35.7,34.5-56,28.1-45.6,34.5-56,21.9-35.7,34.5-56,32.9-53.4,45.3-73.5,27.8-45.1,34.2-55.5,22-35.7,34.5-56,28.1-45.6,34.5-56,16.5-26.9,22.5-36.5,16.1-26.1,22.5-36.5c21.6-35,51.6-83.8,62.5-101.5,5.9-9.6,17.9-29,26.5-43s20.6-33.4,26.5-43,16.1-26.1,22.5-36.5,21.9-35.7,34.5-56,30-48.7,38.8-63c15.4-25,24.4-39.7,46.7-75.7,5.7-9.2,10.5-16.7,10.6-16.5S1006.8,167.2,1014.1,179Zm25.4,707c18.6,31.1,42.1,70.4,52.3,87.5s21.7,36.4,25.7,43c6.1,10.1,71.9,120.5,73.2,122.7.2.5-83.1.8-185.1.8-110.5,0-185.6-.4-185.6-.9s5.1-9.4,11.4-19.8,27.4-45.8,47.1-78.8S918.2,974,923,966s24.8-41.5,44.5-74.5c35.1-58.8,37.5-62.8,38-62.3C1005.7,829.4,1021,854.9,1039.5,886Zm259.9,435.1c.2.2,8.1,13.4,17.6,29.4s21.2,35.5,26,43.5,24.8,41.5,44.5,74.5,40.4,67.6,46,77c23.5,39,78.6,131.5,79.1,133,.7,1.8-.3,2.3-33.6,15.2-28.1,10.9-84.1,29.8-110.5,37.3-124.4,35.3-243.5,52-372,52q-249,0-478.2-88.1c-13.4-5.1-24.3-9.6-24.3-10.1s46.2-78,102.7-172.5S701.6,1336.7,704.3,1332s5.7-9.3,6.5-10.2c1.4-1.7,17.8-1.7,294.8-1.5C1167,1320.5,1299.2,1320.8,1299.4,1321.1Z" transform="translate(-78 -15)"/></svg>