<?xml version="1.0" encoding="utf-8"?>
<!-- Generator: Adobe Illustrator 26.0.3, SVG Export Plug-In . SVG Version: 6.00 Build 0)  -->
<svg version="1.1" id="Layer_1" xmlns="http://www.w3.org/2000/svg" xmlns:xlink="http://www.w3.org/1999/xlink" x="0px" y="0px"
	 viewBox="0 0 2000 2000" style="enable-background:new 0 0 2000 2000;" xml:space="preserve">
<style type="text/css">
	.st0{fill:#8763B5;}
</style>
<g transform="translate(0.000000,2000.000000) scale(0.100000,-0.100000)">
	<path class="st0" d="M9963,17201.4c-17.7-29.4-64.8-106.7-105.3-171.5s-119.3-192.2-174.5-283.6c-56-91.3-184.9-301.2-287.2-467.6
		c-102.4-165.7-225.3-364.6-272.4-441.9c-47.1-76.6-161.3-262.2-254-412.4c-92-149.5-206.9-335-254-412.4
		c-47.1-76.6-121.5-198.1-165.7-268.8c-44.2-70.7-118.6-191.4-165.7-268.8c-47.1-76.6-161.3-262.2-254-412.4
		c-92-149.5-206.9-335-254-412.4c-47.1-76.6-121.5-198.1-165.7-268.8c-44.2-70.7-118.6-191.4-165.7-268.8
		c-47.1-76.6-161.3-262.2-254-412.4c-92-149.5-206.9-335-254-412.4c-47.1-76.6-162-262.2-254-412.4c-92.8-149.5-206.9-335-254-412.4
		c-47.1-76.6-121.5-198.1-165.7-268.8c-44.2-70.7-118.6-191.4-165.7-268.8c-47.1-76.6-162-262.2-254-412.4
		c-92.8-149.5-201.8-327-243-394c-130.3-212.1-383.6-623.8-655.4-1064.1c-145.1-235-320.3-519.9-390.3-633.3
		c-471.7-764.7-942.9-1529-1208.1-1956.9c-75.1-120.8-136.3-222.4-136.3-225.3c0-6.7,188.5-165,320.3-270.2
		c335.8-268.1,845.4-616.4,1190.8-816.7c47.9-27.2,85.4-51.6,84-54.5c-1.5-2.2-58.9-99.4-128.9-216.5
		c-69.2-116.4-125.9-216.5-125.9-222.4c0-6.7-53-100.2-117.8-207.6c-64.8-108.2-115.6-198.8-112.7-201.8
		c22.1-22.1,442.6-246.7,642.9-343.9c1900.6-921.9,3990.5-1299,6101.1-1102.4c1290.9,120.8,2527.3,453.6,3726.3,1002.3
		c142.8,64.8,557.5,273.9,666.4,335.8c46.4,26.5,128.1,72.2,180.4,101.6c53,29.4,97.2,54.5,98.7,56c1.5,1.5-50.8,92-115.6,201.1
		c-65.5,109-119.3,201.8-119.3,205.4s-58.1,103.9-129.6,222.4c-70.7,118.6-127.4,219.5-125.2,224.6c1.5,4.4,27.2,22.9,57.4,40.5
		c433,256.2,996.4,659.1,1386.7,993.4c44.9,38.3,86.2,73.6,92,79.5c8.8,8.1,8.8,12.5-3.7,33.9c-22.1,38.3-238.6,388.1-265.1,428.6
		c-22.1,33.9-74.3,118.6-294.6,475c-41.2,67-122.9,199.6-181.9,294.6c-59,95-164.2,265.9-234.2,379.3
		c-70,113.4-196.6,318.8-282.1,456.6c-85.4,137.7-198.1,320.3-250.4,405c-52.3,85.4-120.8,195.9-152.5,246.7
		c-49.3,79.5-195.1,315.2-521.4,843.2c-41.9,69.2-102.4,166.4-134,217.3c-31.7,50.8-109,176.7-173,279.8
		c-64.1,103.1-141.4,229-173,279.8c-31.7,50.8-100.9,163.5-154.7,250.4c-53.8,86.9-131.8,212.8-173,279.8
		c-41.2,67-145.8,235.7-232,375.6c-277.6,449.2-368.9,597.9-445.6,721.7c-41.2,67-118.6,191.4-170.9,276.1
		c-52.3,85.4-166.4,268.8-252.6,408.7c-86.2,139.9-199.6,324-252.6,408.7c-52.3,85.4-120.8,195.9-152.5,246.7
		s-144.3,232.7-250.4,405c-106.1,172.3-227.5,367.4-268.8,434.4c-70.7,114.1-265.9,430.1-484.5,784.3
		c-52.3,85.4-137.7,222.4-189.2,305.6c-50.8,83.2-160.5,260.7-243,394c-82.5,134-195.1,316-250.4,405
		c-55.3,89.1-136.3,220.1-179.7,290.9c-43.4,70.7-134,218.8-201.1,327.7c-67,109.7-140.6,229.8-163.5,266.6
		c-22.9,37.6-44.9,68.5-49.3,68.5C9997.6,17254.5,9979.9,17230.1,9963,17201.4z M10103.6,16046.7c53.8-86.9,131.1-212.8,172.3-279.8
		c41.2-67,188.5-305.6,327.7-530.3c282.8-457.3,368.2-595.7,493.4-799c47.9-76.6,138.5-224.6,202.5-327.7s133.3-215.8,154.7-250.4
		c21.4-34.6,82.5-134,136.3-220.9c53.8-86.9,132.6-214.3,175.2-283.6c150.2-243.7,229-370.4,343.9-556
		c64.1-103.1,133.3-215.8,154.7-250.4c21.4-34.6,90.5-147.3,154.7-250.4s190-307.1,279.8-452.9c89.8-145.8,207.6-336.5,261.4-423.4
		c53.8-86.9,158.3-256.2,232-375.6c73.6-119.3,186.3-301.9,250.4-405c64.1-103.1,176.7-285.7,250.4-405
		c73.6-119.3,212.8-344.6,309.3-500.7c96.5-156.1,214.3-346.1,261.4-423.4c47.1-76.6,165-267.4,261.4-423.4
		c96.5-156.1,209.1-338,250.4-405c41.2-67,153.9-248.9,250.4-405c96.5-156.1,209.1-338,250.4-405c41.2-67,110.4-178.9,153.2-248.2
		c43.4-70,113.4-182.6,154.7-250.4c134-217.3,366-592.1,431.6-698.1c35.4-56.7,66.3-106.7,69.2-111.9
		c8.8-14.7-345.4-279.1-624.5-466.1c-200.3-134-469.8-301.9-485.3-301.9c-2.2,0-29.4,44.2-61.8,97.2
		c-32.4,53.8-212.1,354.9-399.2,668.7c-187.1,313.7-364.6,610.5-394,659.1c-29.4,48.6-176.7,295.3-327.7,548.6
		c-151,253.3-307.8,516.9-349.8,585.4c-70,117.1-217.3,362.3-1093.6,1830c-187.7,313.7-416,696.6-508.1,850.6
		c-533.1,891-904.3,1512.6-977.9,1638.5c-118.6,201.1-809.3,1356.5-818.9,1369.7c-4.4,6.7-9.5,8.1-11,3.7
		c-2.2-3.7-101.6-171.5-221.6-371.9c-418.2-698.1-535.4-894.7-541.3-905.7c-3-5.9-75.1-126.6-159.8-268.8
		c-84.7-141.4-277.6-464.7-428.6-718c-151-253.3-298.3-500-327.7-548.6c-50.1-84-405.7-678.2-994.1-1664.3
		c-145.1-243-374.8-627.5-510.4-854.3c-469.8-785.8-582.5-975-910.9-1524.4c-181.2-303.4-410.9-687.8-510.4-854.3
		c-99.4-165.7-217.3-363.1-261.4-438.1c-44.9-75.1-85.4-140.6-90.5-146.5c-8.1-8.8-19.9-4.4-78,28.7
		c-178.2,102.4-500,310-694.4,447.8c-148,104.6-394,290.1-391,295.3c5.9,9.5,201.8,328.4,429.4,696.6
		c129.6,210.6,349.8,568.5,489.7,795.3c295.3,479.4,522.9,849.1,755.6,1226.1c91.3,148,204.7,332.2,251.9,408.7
		c47.1,77.3,161.3,262.9,254,412.4c92,150.2,206.9,335.8,254,412.4c47.1,77.3,161.3,262.9,254,412.4
		c92,150.2,242.3,393.3,333.6,541.3c91.3,148,204.7,332.2,251.9,408.7c47.1,77.3,162,262.9,254,412.4
		c92.8,150.2,206.9,335.8,254,412.4c47.1,77.3,121.5,198.1,165.7,268.8c44.2,70.7,118.6,192.2,165.7,268.8
		c159,257.7,380,617.1,460.3,747.4c43.4,70.7,131.8,213.6,195.1,316.7c63.3,103.1,151.7,246,195.1,316.7
		c44.2,70.7,118.6,192.2,165.7,268.8c47.1,77.3,161.3,262.9,254,412.4c92,150.2,220.9,358.6,285.7,464
		c113.4,184.1,179.7,292.3,343.9,557.5c41.9,67.8,77.3,122.9,78,121.5C10004.9,16205.8,10049.8,16133.6,10103.6,16046.7z
		 M10290.7,10840.3c137-229,310-518.4,385.1-644.3c74.3-125.2,159.8-268.1,189.2-316.7c44.9-74.3,529.5-887.4,539.1-903.6
		c1.5-3.7-611.9-5.9-1363-5.9c-813.7,0-1366.8,3-1366.8,6.7s37.6,69.2,84,145.8c45.6,75.8,201.8,337.2,346.9,580.2
		c144.3,243,292.3,489.7,327.7,548.6s182.6,305.6,327.7,548.6c258.5,433,276.1,462.5,279.8,458.8
		C10041.8,11257.1,10154.4,11069.4,10290.7,10840.3z M12204.6,7636.2c1.5-1.5,59.6-98.7,129.6-216.5
		c70-117.1,156.1-261.4,191.4-320.3c35.4-58.9,182.6-305.6,327.7-548.6s297.5-497.8,338.7-567c173-287.2,578.9-968.4,582.5-979.4
		c5.2-13.2-2.2-16.9-247.4-111.9c-206.9-80.3-619.3-219.5-813.7-274.7c-916.1-259.9-1793.1-383-2739.4-383
		c-1222.4,0-2396.3,215.8-3521.5,648.8c-98.7,37.6-178.9,70.7-178.9,74.3c0,3,340.2,574.4,756.3,1270.3
		c415.4,695.9,772.5,1293.2,792.3,1327.8c20.6,34.6,41.9,68.5,47.9,75.1c10.3,12.5,131.1,12.5,2170.9,11
		C11229.6,7640.6,12203.1,7638.4,12204.6,7636.2z"/>
</g>
</svg>
